<?xml version="1.0" encoding="UTF-8"?>
<!-- Created with Inkscape (http://www.inkscape.org/) -->
<svg width="680.65" height="246" version="1.1" viewBox="0 0 680.65 246" xml:space="preserve" xmlns="http://www.w3.org/2000/svg"><defs><clipPath id="clipPath27"><path d="m42.52 87.846h510.24v691.68h-510.24z" clip-rule="evenodd"/></clipPath><clipPath id="clipPath35"><path d="m42.52 87.874h510.24v691.65h-510.24z" clip-rule="evenodd"/></clipPath><clipPath id="clipPath45"><path d="m0 0h708.66v623.62h-708.66z" clip-rule="evenodd"/></clipPath></defs><g transform="matrix(1.3333 0 0 -1.3333 -87.349 770.41)"><g transform="matrix(1 0 0 -1 0 841.89)"><g clip-path="url(#clipPath27)"><g clip-path="url(#clipPath35)"><g transform="translate(-56.693 121.89)"><g clip-path="url(#clipPath45)"><g transform="matrix(2.3598 0 0 2.3598 0 197.26)"/></g></g></g></g><g transform="translate(42.52 116.22)"><g transform="translate(56.693 248.2)"><g transform="translate(-64.795 144.33)"><g transform="translate(31.22 -244.55)"><g transform="matrix(1.6667 0 0 1.6667 0 .00017)"><path d="m0 0h306.14v110.55h-306.14z" fill="none" stroke="#fff" stroke-linecap="round" stroke-linejoin="round" stroke-miterlimit="3" stroke-width=".15"/><g transform="translate(23.811 -1.7008)"><path d="m0 11.906h47.622v98.645h-47.622z" fill="#f2f2f2" fill-rule="evenodd" stroke="#000" stroke-linecap="round" stroke-linejoin="round" stroke-miterlimit="3" stroke-width=".3"/><text transform="translate(14.142 18.384)" fill="#000000" font-family="Arial" font-size="6px"><tspan x="0 4.0020132 7.6680255 12.666042 16.002054" y="0">STM32</tspan></text><g transform="translate(22.11 -68.031)"><text transform="translate(10.205 108.59)" fill="#000000" font-family="Arial" font-size="4.8px"><tspan x="0 3.2015867 5.8703756 9.3359613 12.00475" y="0">Power</tspan></text><g transform="translate(0 36.354)"><text transform="translate(16.344 108.59)" fill="#000000" font-family="Arial" font-size="4.8px"><tspan x="0 3.4655855" y="0">DM</tspan></text><g transform="translate(0 8.2913)"><text transform="translate(17.141 108.59)" fill="#000000" font-family="Arial" font-size="4.8px"><tspan x="0 3.4655855" y="0">DP</tspan></text><g transform="translate(0 9.7795)"><text transform="translate(5.9378 108.59)" fill="#000000" font-family="Arial" font-size="4.8px"><tspan x="0 3.7343845 6.9359713 10.401557 13.070346 14.40474" y="0">OSC_IN</tspan></text><g transform="translate(0 10.249)"><text transform="translate(.60504 108.59)" fill="#000000" font-family="Arial" font-size="4.8px"><tspan x="0 3.7343845 6.9359713 10.401557 13.070346 16.804729 20.270315" y="0">OSC_OUT</tspan></text><g transform="translate(25.512 -68.076)"><path d="m0 110.55h10.206" fill="none" stroke="#000" stroke-linecap="round" stroke-linejoin="round" stroke-miterlimit="3" stroke-width=".3"/><g transform="translate(-71.433 73.134)"><g transform="rotate(-90 4.3293 33.243)"><path d="m0 110.55h23.874" fill="none" stroke="#000" stroke-linecap="round" stroke-linejoin="round" stroke-miterlimit="3" stroke-width=".3"/><g transform="matrix(.5 0 0 .5 27.366 110.55)"><g transform="scale(-3.88)"><path d="m1.8 0.6-1.8-0.6 1.8-0.6v1.2" fill-rule="evenodd"/></g></g></g><g transform="translate(69.732 -100.35)"><text transform="translate(6.3024 108.59)" fill="#000000" font-family="Arial" font-size="4.8px"><tspan x="0 2.6687889 4.0031834 6.6719723 8.0015669" y="0">3.3 V</tspan></text><g transform="translate(164.98 98.646)"><path d="m0 11.906h47.622v98.645h-47.622z" fill="none" stroke="#000" stroke-linecap="round" stroke-linejoin="round" stroke-miterlimit="3" stroke-width=".3"/><text transform="translate(7.14 17.304)" fill="#000000" font-family="Arial" font-size="6px"><tspan x="0 4.3320146 8.3340282 12.336041 14.004046 17.340057 20.340067 23.676079 27.012091 29.010098 33.012112" y="0">USB Type-B </tspan><tspan x="3.4980099 6.4980202 9.8340311 13.170042 16.506054 19.842064 22.842075 24.51008 27.84609" y="8.2800303">connector</tspan></text><g transform="translate(1.701 -68.031)"><text transform="translate(.00027 108.59)" fill="#000000" font-family="Arial" font-size="4.8px"><tspan x="0 3.2015867 6.4031734 9.8687592" y="0">VBUS</tspan></text><g transform="translate(0 36.354)"><text transform="translate(.00027 108.59)" fill="#000000" font-family="Arial" font-size="4.8px"><tspan x="0 3.4655855" y="0">DM</tspan></text><g transform="translate(0 8.2913)"><text transform="translate(.00027 108.59)" fill="#000000" font-family="Arial" font-size="4.8px"><tspan x="0 3.4655855" y="0">DP</tspan></text><g transform="translate(-164.98 -11.693)"><path d="m0 110.55h163.12" fill="none" stroke="#000" stroke-linecap="round" stroke-linejoin="round" stroke-miterlimit="3" stroke-width=".3"/><g transform="matrix(.5 0 0 .5 0 110.55)"><g transform="scale(3.88)"><path d="M 0.6,-0.6 0,0 0.6,0.6" fill="none" stroke="#000" stroke-linecap="round" stroke-linejoin="round" stroke-miterlimit="3" stroke-width=".15464"/></g></g><g transform="matrix(.5 0 0 .5 163.12 110.55)"><g transform="scale(-3.88)"><path d="M 0.6,-0.6 0,0 0.6,0.6" fill="none" stroke="#000" stroke-linecap="round" stroke-linejoin="round" stroke-miterlimit="3" stroke-width=".15464"/></g></g><g transform="translate(.1548 8.2913)"><path d="m0 110.55h163.12" fill="none" stroke="#000" stroke-linecap="round" stroke-linejoin="round" stroke-miterlimit="3" stroke-width=".3"/><g transform="matrix(.5 0 0 .5 0 110.55)"><g transform="scale(3.88)"><path d="M 0.6,-0.6 0,0 0.6,0.6" fill="none" stroke="#000" stroke-linecap="round" stroke-linejoin="round" stroke-miterlimit="3" stroke-width=".15464"/></g></g><g transform="matrix(.5 0 0 .5 163.12 110.55)"><g transform="scale(-3.88)"><path d="M 0.6,-0.6 0,0 0.6,0.6" fill="none" stroke="#000" stroke-linecap="round" stroke-linejoin="round" stroke-miterlimit="3" stroke-width=".15464"/></g></g><g transform="translate(-71.588 28.488)"><g transform="rotate(180 117.35 73.984)"><path d="m0 110.55h54.426" fill="none" stroke="#000" stroke-linecap="round" stroke-linejoin="round" stroke-miterlimit="3" stroke-width=".3"/><g transform="matrix(.5 0 0 .5 54.426 110.55)"><g transform="scale(-3.88)"><path d="M 0.6,-0.6 0,0 0.6,0.6" fill="none" stroke="#000" stroke-linecap="round" stroke-linejoin="round" stroke-miterlimit="3" stroke-width=".15464"/></g></g></g><g transform="rotate(-90 36.283 62.362)"><path d="m0.852 110.55v-5.67h1.698v5.67z" fill="#fff" fill-rule="evenodd"/><g fill="none" stroke="#000" stroke-linecap="round" stroke-linejoin="round" stroke-miterlimit="3" stroke-width=".3"><path d="m3.402 109.99v-4.536"/><path d="m0.852 110.55v-5.67h1.698v5.67h-1.698"/><path d="m0 109.99v-4.536"/><path d="m0 109.99v-1.704"/><path d="m0 107.15v-1.698"/><path d="m3.402 109.99v-1.704"/><path d="m3.402 107.15v-1.698"/></g></g><g transform="translate(81.638 -73.134)"><path d="m0 110.55h57.828" fill="none" stroke="#000" stroke-linecap="round" stroke-linejoin="round" stroke-miterlimit="3" stroke-width=".3"/><g transform="translate(-10.205 54.425)"><path d="m0 110.55h10.206" fill="none" stroke="#000" stroke-linecap="round" stroke-linejoin="round" stroke-miterlimit="3" stroke-width=".3"/><g transform="translate(-71.433 18.709)"><g transform="rotate(90 50.173 142.02)"><path d="m0 110.55h3.402" fill="none" stroke="#000" stroke-linecap="round" stroke-linejoin="round" stroke-miterlimit="3" stroke-width=".3"/></g><g transform="rotate(90 46.772 145.42)"><path d="m0 110.55h3.402" fill="none" stroke="#000" stroke-linecap="round" stroke-linejoin="round" stroke-miterlimit="3" stroke-width=".3"/></g><g transform="translate(71.433 -8.4592)"><path d="m0 110.55h10.206" fill="none" stroke="#000" stroke-linecap="round" stroke-linejoin="round" stroke-miterlimit="3" stroke-width=".3"/><g transform="translate(47.622 -54.47)"><path d="m0 90.142h61.228v20.409h-61.228z" fill="#fff" fill-rule="evenodd" stroke="#000" stroke-linecap="round" stroke-linejoin="round" stroke-miterlimit="3" stroke-width=".3"/><g fill="#000000" font-family="Arial"><text transform="translate(12.096 98.904)" font-size="4.8px"><tspan x="0 2.6687889 4.0031834 7.2047701 8.5391645 9.873559 12.542348 13.876742" y="0">5 V to V</tspan></text><text transform="translate(29.171 99.022)" font-size="3.1194px"><tspan x="0 2.2522068" y="0">DD</tspan></text><text transform="translate(33.676 98.902)" font-size="4.8px"><tspan x="0 1.3343945" y="0">/V</tspan></text><text transform="translate(38.212 99.02)" font-size="3.1194px"><tspan x="0 2.2522068 4.5044136 6.7566204 8.8372602" y="0">DDUSB</tspan></text><text transform="translate(12.736 104.66)" font-size="4.8px"><tspan x="0 2.3999901 5.068779 6.1343746 7.4687691 10.137558 12.806347 15.479936 16.814329 18.412724 21.081512 23.750301 26.41909 27.484686 30.153475 31.487869 34.156658" y="0">voltage regulator</tspan></text></g><g transform="translate(-37.843 -9.7794)"><path d="m0.85039 110.13c0 0.23483-0.19036 0.42519-0.42519 0.42519s-0.4252-0.19036-0.4252-0.42519c0-0.23482 0.19037-0.42519 0.4252-0.42519s0.42519 0.19037 0.42519 0.42519z" fill-rule="evenodd" stroke="#000" stroke-linecap="round" stroke-linejoin="round" stroke-miterlimit="3" stroke-width=".3"/></g></g></g></g></g></g></g></g></g></g></g></g></g></g></g></g></g></g></g></g></g></g></g></g></g></g></g></g></g></svg>
