<?xml version="1.0" encoding="UTF-8"?>
<!-- Created with Inkscape (http://www.inkscape.org/) -->
<svg width="680.65" height="246" version="1.1" viewBox="0 0 680.65 246" xml:space="preserve" xmlns="http://www.w3.org/2000/svg"><defs><clipPath id="clipPath27"><path d="m42.52 87.846h510.24v691.68h-510.24z" clip-rule="evenodd"/></clipPath><clipPath id="clipPath35"><path d="m42.52 87.874h510.24v691.65h-510.24z" clip-rule="evenodd"/></clipPath><clipPath id="clipPath45"><path d="m0 0h708.66v623.62h-708.66z" clip-rule="evenodd"/></clipPath></defs><g transform="matrix(1.3333 0 0 -1.3333 -73.509 791.37)"><g transform="matrix(1 0 0 -1 0 841.89)"><g clip-path="url(#clipPath27)"><g clip-path="url(#clipPath35)"><g transform="translate(-56.693 121.89)"><g clip-path="url(#clipPath45)"><g transform="matrix(2.3598 0 0 2.3598 0 197.26)"/></g></g></g></g><g transform="translate(42.52 116.22)"><g transform="translate(56.693)"><g transform="translate(-83.75 90.086)"><g transform="translate(56.693)"><g transform="translate(-56.693 113.14)"><g transform="translate(56.693)"><g transform="translate(-28.595 -12)"><g transform="translate(11.696 -58.963)"><g transform="matrix(1.6667 0 0 1.6667 0 .00017)"><path d="m0 0h306.14v110.55h-306.14z" fill="none" stroke="#fff" stroke-linecap="round" stroke-linejoin="round" stroke-miterlimit="3" stroke-width=".15"/><g transform="translate(27.213 -1.7008)"><path d="m0 11.906h47.622v98.645h-47.622z" fill="#f2f2f2" fill-rule="evenodd" stroke="#000" stroke-linecap="round" stroke-linejoin="round" stroke-miterlimit="3" stroke-width=".3"/><text transform="translate(14.142 18.384)" fill="#000000" font-family="Arial" font-size="6px"><tspan x="0 4.0020132 7.6680255 12.666042 16.002054" y="0">STM32</tspan></text><g transform="translate(22.11 -81.638)"><text transform="translate(10.205 108.59)" fill="#000000" font-family="Arial" font-size="4.8px"><tspan x="0 3.2015867 5.8703756 9.3359613 12.00475" y="0">Power</tspan></text><g transform="translate(0 27.213)"><text transform="translate(10.738 108.59)" fill="#000000" font-family="Arial" font-size="4.8px"><tspan x="0 3.2015867 6.4031734 9.8687592" y="0">VBUS</tspan></text><g transform="translate(0 22.748)"><text transform="translate(16.344 108.59)" fill="#000000" font-family="Arial" font-size="4.8px"><tspan x="0 3.4655855" y="0">DM</tspan></text><g transform="translate(0 8.2913)"><text transform="translate(17.141 108.59)" fill="#000000" font-family="Arial" font-size="4.8px"><tspan x="0 3.4655855" y="0">DP</tspan></text><g transform="translate(0 9.7795)"><text transform="translate(5.9378 108.59)" fill="#000000" font-family="Arial" font-size="4.8px"><tspan x="0 3.7343845 6.9359713 10.401557 13.070346 14.40474" y="0">OSC_IN</tspan></text><g transform="translate(0 10.249)"><text transform="translate(.60504 108.59)" fill="#000000" font-family="Arial" font-size="4.8px"><tspan x="0 3.7343845 6.9359713 10.401557 13.070346 16.804729 20.270315" y="0">OSC_OUT</tspan></text><g transform="translate(25.512 -81.683)"><path d="m0 110.55h10.206" fill="none" stroke="#000" stroke-linecap="round" stroke-linejoin="round" stroke-miterlimit="3" stroke-width=".3"/><g transform="translate(-74.834 86.74)"><g transform="rotate(-90 -.85041 24.661)"><path d="m0 110.55h10.116" fill="none" stroke="#000" stroke-linecap="round" stroke-linejoin="round" stroke-miterlimit="3" stroke-width=".3"/><g transform="matrix(.5 0 0 .5 13.608 110.55)"><g transform="scale(-3.88)"><path d="m1.8 0.6-1.8-0.6 1.8-0.6v1.2" fill-rule="evenodd"/></g></g></g><g transform="translate(73.134 -100.35)"><text transform="translate(6.3024 108.59)" fill="#000000" font-family="Arial" font-size="4.8px"><tspan x="0 2.6687889 4.0031834 6.6719723 8.0015669" y="0">3.3 V</tspan></text><g transform="translate(164.98 98.646)"><path d="m0 11.906h47.622v98.645h-47.622z" fill="none" stroke="#000" stroke-linecap="round" stroke-linejoin="round" stroke-miterlimit="3" stroke-width=".3"/><text transform="translate(7.14 17.304)" fill="#000000" font-family="Arial" font-size="6px"><tspan x="0 4.3320146 8.3340282 12.336041 14.004046 17.340057 20.340067 23.676079 27.012091 29.010098 33.012112" y="0">USB Type-B </tspan><tspan x="3.4980099 6.4980202 9.8340311 13.170042 16.506054 19.842064 22.842075 24.51008 27.84609" y="8.2800303">connector</tspan></text><g transform="translate(1.701 -71.433)"><text transform="translate(.00027 108.59)" fill="#000000" font-family="Arial" font-size="4.8px"><tspan x="0 3.2015867 6.4031734 9.8687592" y="0">VBUS</tspan></text><g transform="translate(0 39.756)"><text transform="translate(.00027 108.59)" fill="#000000" font-family="Arial" font-size="4.8px"><tspan x="0 3.4655855" y="0">DM</tspan></text><g transform="translate(0 8.2913)"><text transform="translate(.00027 108.59)" fill="#000000" font-family="Arial" font-size="4.8px"><tspan x="0 3.4655855" y="0">DP</tspan></text><g transform="translate(-164.98 -11.693)"><path d="m0 110.55h163.12" fill="none" stroke="#000" stroke-linecap="round" stroke-linejoin="round" stroke-miterlimit="3" stroke-width=".3"/><g transform="matrix(.5 0 0 .5 0 110.55)"><g transform="scale(3.88)"><path d="M 0.6,-0.6 0,0 0.6,0.6" fill="none" stroke="#000" stroke-linecap="round" stroke-linejoin="round" stroke-miterlimit="3" stroke-width=".15464"/></g></g><g transform="matrix(.5 0 0 .5 163.12 110.55)"><g transform="scale(-3.88)"><path d="M 0.6,-0.6 0,0 0.6,0.6" fill="none" stroke="#000" stroke-linecap="round" stroke-linejoin="round" stroke-miterlimit="3" stroke-width=".15464"/></g></g><g transform="translate(.1548 8.2913)"><path d="m0 110.55h163.12" fill="none" stroke="#000" stroke-linecap="round" stroke-linejoin="round" stroke-miterlimit="3" stroke-width=".3"/><g transform="matrix(.5 0 0 .5 0 110.55)"><g transform="scale(3.88)"><path d="M 0.6,-0.6 0,0 0.6,0.6" fill="none" stroke="#000" stroke-linecap="round" stroke-linejoin="round" stroke-miterlimit="3" stroke-width=".15464"/></g></g><g transform="matrix(.5 0 0 .5 163.12 110.55)"><g transform="scale(-3.88)"><path d="M 0.6,-0.6 0,0 0.6,0.6" fill="none" stroke="#000" stroke-linecap="round" stroke-linejoin="round" stroke-miterlimit="3" stroke-width=".15464"/></g></g><g transform="translate(-74.989 28.488)"><g transform="rotate(180 119.06 72.284)"><path d="m0 110.55h85.038" fill="none" stroke="#000" stroke-linecap="round" stroke-linejoin="round" stroke-miterlimit="3" stroke-width=".3"/><g transform="matrix(.5 0 0 .5 85.038 110.55)"><g transform="scale(-3.88)"><path d="M 0.6,-0.6 0,0 0.6,0.6" fill="none" stroke="#000" stroke-linecap="round" stroke-linejoin="round" stroke-miterlimit="3" stroke-width=".15464"/></g></g></g><g transform="rotate(90 114.77 148.86)"><path d="m0 110.55h6.732" fill="none" stroke="#000" stroke-linecap="round" stroke-linejoin="round" stroke-miterlimit="3" stroke-width=".3"/></g><g transform="rotate(-90 46.772 2.5512)"><path d="m0 108.85 0.708-1.704 1.416 3.402 1.422-3.402 1.416 3.402 1.416-3.402 1.416 3.402 0.708-1.698" fill="none" stroke="#000" stroke-linecap="round" stroke-linejoin="round" stroke-miterlimit="3" stroke-width=".3"/></g><g transform="rotate(-90 37.984 60.661)"><path d="m0.852 110.55v-5.67h1.698v5.67z" fill="#fff" fill-rule="evenodd"/><g fill="none" stroke="#000" stroke-linecap="round" stroke-linejoin="round" stroke-miterlimit="3" stroke-width=".3"><path d="m3.402 109.99v-4.536"/><path d="m0.852 110.55v-5.67h1.698v5.67h-1.698"/><path d="m0 109.99v-4.536"/><path d="m0 109.99v-1.704"/><path d="m0 107.15v-1.698"/><path d="m3.402 109.99v-1.704"/><path d="m3.402 107.15v-1.698"/></g></g><g transform="rotate(-90 56.439 12.398)" fill="none" stroke="#000" stroke-linecap="round" stroke-linejoin="round" stroke-miterlimit="3" stroke-width=".3"><path d="m0 108.52v1.014"/><path d="m0.51 108.01v2.034"/><path d="m1.014 107.51v3.042"/><path d="m7.608 109.03h-6.594"/></g><g transform="rotate(90 107.15 156.47)"><path d="m0 110.55h3.402" fill="none" stroke="#000" stroke-linecap="round" stroke-linejoin="round" stroke-miterlimit="3" stroke-width=".3"/></g><g transform="rotate(-90 52.724 8.5039)"><path d="m0 108.85 0.708-1.704 1.416 3.402 1.422-3.402 1.416 3.402 1.416-3.402 1.416 3.402 0.708-1.698" fill="none" stroke="#000" stroke-linecap="round" stroke-linejoin="round" stroke-miterlimit="3" stroke-width=".3"/></g><g transform="translate(74.834 -59.528)"><path d="m0 110.55h78.234" fill="none" stroke="#000" stroke-linecap="round" stroke-linejoin="round" stroke-miterlimit="3" stroke-width=".3"/><g transform="translate(77.641 .59526)"><path d="m1.2756 109.96c0 0.32876-0.28555 0.59528-0.6378 0.59528-0.35224 0-0.63779-0.26652-0.63779-0.59528s0.28555-0.59527 0.63779-0.59527c0.35225 0 0.6378 0.26651 0.6378 0.59527z" fill-rule="evenodd" stroke="#000" stroke-linecap="round" stroke-linejoin="round" stroke-miterlimit="3" stroke-width=".3"/><g transform="translate(-77.641 40.224)"><path d="m0 110.55h10.206" fill="none" stroke="#000" stroke-linecap="round" stroke-linejoin="round" stroke-miterlimit="3" stroke-width=".3"/><g transform="translate(-74.834 18.709)"><g transform="rotate(90 51.874 143.72)"><path d="m0 110.55h3.402" fill="none" stroke="#000" stroke-linecap="round" stroke-linejoin="round" stroke-miterlimit="3" stroke-width=".3"/></g><g transform="rotate(90 48.473 147.12)"><path d="m0 110.55h3.402" fill="none" stroke="#000" stroke-linecap="round" stroke-linejoin="round" stroke-miterlimit="3" stroke-width=".3"/></g><g transform="translate(74.834 -8.4592)"><path d="m0 110.55h10.206" fill="none" stroke="#000" stroke-linecap="round" stroke-linejoin="round" stroke-miterlimit="3" stroke-width=".3"/><g transform="translate(81.638 -53.62)"><text transform="translate(0 108.59)" fill="#000000" font-family="Arial" font-size="4.8px"><tspan x="0 3.4655855" y="0">R1</tspan></text><g transform="translate(0 11.906)"><text transform="translate(0 108.59)" fill="#000000" font-family="Arial" font-size="4.8px"><tspan x="0 3.4655855" y="0">R2</tspan></text></g></g></g></g></g></g></g></g></g></g></g></g></g></g></g></g></g></g></g></g></g></g></g></g></g></g></g></g></g></g></g></g></g></g></g></svg>
